<?xml version="1.0" encoding="UTF-8"?>
<svg xmlns="http://www.w3.org/2000/svg" xmlns:xlink="http://www.w3.org/1999/xlink" width="3000px" height="3000px" viewBox="0 0 3000 3000" version="1.1">
<g id="surface1">
<path style=" stroke:none;fill-rule:nonzero;fill:rgb(95.294118%,61.960787%,12.156863%);fill-opacity:1;" d="M 873.054688 2273.835938 C 817.957031 2375.613281 770.925781 2469.5 736.882812 2581.457031 C 721.339844 2632.554688 710.121094 2688.222656 724.488281 2740.773438 C 748.101562 2826.558594 781.355469 2856.261719 880.335938 2863.949219 C 1018.476562 2874.542969 1146.386719 2837.984375 1265.042969 2755.105469 C 1353.59375 2693 1435.0625 2625.492188 1505.902344 2541.992188 C 1606.457031 2423.179688 1690.878906 2293.359375 1760.539062 2150.246094 C 1769 2228.761719 1782.183594 2305.199219 1802.253906 2380.390625 C 1853.613281 2572.941406 1948.464844 2730.804688 2125.371094 2818.457031 C 2176.53125 2843.800781 2235.566406 2844.421875 2292.238281 2849.199219 C 2143.078125 2904.867188 1987.621094 2927.921875 1831.183594 2946.824219 C 1649.554688 2968.84375 1467.726562 2987.121094 1285.3125 2996.46875 C 1096.597656 3006.023438 907.886719 2996.46875 722.320312 2961.15625 C 542.070312 2926.886719 371.660156 2861.664062 237.0625 2721.042969 C 132.375 2611.785156 74.324219 2476.769531 40.671875 2327.21875 C -12.457031 2091.464844 -4.390625 1853.632812 17.257812 1615.800781 C 62.320312 1125.183594 251.425781 697.707031 538.136719 315.308594 C 606.613281 223.914062 680.015625 135.636719 776.042969 73.53125 C 843.734375 29.703125 920.285156 15.371094 1005.097656 0 C 883.289062 194.210938 778.207031 390.917969 696.542969 600.707031 C 601.300781 735.304688 535.378906 886.519531 478.511719 1042.097656 C 452.535156 1113.132812 421.640625 1183.132812 411.605469 1259.988281 C 376.773438 1456.070312 386.613281 1648.617188 461.980469 1833.277344 C 544.628906 2036.003906 679.816406 2189.089844 873.253906 2274.042969 Z M 873.054688 2273.835938 "/>
<path style=" stroke:none;fill-rule:nonzero;fill:rgb(11.764706%,16.470589%,20.392157%);fill-opacity:1;" d="M 696.742188 599.875 C 788.441406 559.371094 879.945312 518.660156 978.53125 498.511719 C 1207.976562 451.984375 1436.046875 445.335938 1654.078125 547.738281 C 1862.078125 645.363281 1964.007812 822.128906 1970.503906 1061 C 1971.683594 1106.28125 1970.503906 1151.5625 1970.503906 1209.304688 C 2009.464844 1118.121094 2048.429688 1040.019531 2094.082031 965.867188 C 2125.960938 913.9375 2156.65625 861.800781 2196.210938 814.441406 C 2220.609375 785.363281 2238.320312 746.9375 2264.101562 716.609375 C 2356.585938 607.976562 2449.269531 498.511719 2577.375 435.367188 C 2669.074219 390.085938 2766.085938 365.160156 2868.414062 387.386719 C 2959.128906 407.117188 3001.042969 461.953125 2998.878906 562.070312 C 2995.140625 736.136719 2964.441406 906.042969 2922.726562 1073.667969 C 2892.421875 1194.972656 2858.574219 1315.445312 2798.359375 1424.910156 C 2777.109375 1463.753906 2754.476562 1504.464844 2702.921875 1514.4375 C 2707.054688 1475.59375 2723.976562 1444.644531 2737.359375 1412.65625 C 2777.109375 1318.148438 2816.265625 1223.429688 2846.375 1124.972656 C 2884.351562 1000.761719 2850.308594 945.925781 2716.105469 920.792969 C 2638.574219 906.253906 2564.585938 925.363281 2498.074219 974.175781 C 2336.910156 1092.363281 2170.628906 1203.074219 2032.6875 1352.835938 C 2013.402344 1373.605469 1991.953125 1393.339844 1990.769531 1430.3125 C 2019.109375 1421.589844 2038.390625 1400.816406 2061.414062 1387.523438 C 2246.585938 1282.421875 2432.152344 1177.941406 2617.519531 1073.253906 C 2628.539062 1067.023438 2639.753906 1061 2651.5625 1057.257812 C 2682.457031 1047.496094 2714.726562 1038.980469 2742.082031 1065.152344 C 2770.023438 1091.738281 2771.597656 1126.636719 2762.9375 1162.777344 C 2736.175781 1272.449219 2666.125 1349.925781 2587.015625 1418.886719 C 2452.417969 1536.453125 2293.8125 1612.0625 2140.523438 1696.808594 C 2106.28125 1715.710938 2071.453125 1733.15625 2037.015625 1751.230469 C 2030.324219 1754.761719 2021.664062 1754.96875 2024.8125 1767.847656 C 2064.761719 1927.992188 2123.203125 2077.339844 2233.402344 2200.71875 C 2340.253906 2320.570312 2587.214844 2344.25 2692.886719 2158.140625 C 2743.851562 2068.199219 2797.964844 1979.921875 2851.292969 1891.433594 C 2860.9375 1875.441406 2871.757812 1859.863281 2883.566406 1845.324219 C 2893.011719 1833.691406 2906.390625 1835.351562 2918.199219 1840.960938 C 2928.039062 1845.738281 2923.710938 1855.085938 2921.9375 1864.015625 C 2869.199219 2130.304688 2792.257812 2387.039062 2643.296875 2612.824219 C 2558.679688 2741.191406 2448.679688 2834.867188 2292.632812 2848.160156 C 2235.960938 2843.382812 2176.925781 2842.761719 2125.761719 2817.421875 C 1948.855469 2729.765625 1854.007812 2571.902344 1802.648438 2379.351562 C 1782.578125 2304.160156 1769.394531 2227.722656 1760.929688 2149.207031 C 1691.074219 2292.320312 1606.65625 2422.140625 1506.296875 2540.953125 C 1435.652344 2624.453125 1354.183594 2691.960938 1265.4375 2754.066406 C 1146.976562 2837.152344 1018.871094 2873.503906 880.730469 2862.910156 C 781.554688 2855.433594 748.492188 2825.730469 724.878906 2739.734375 C 710.320312 2687.183594 721.535156 2631.515625 737.277344 2580.417969 C 771.320312 2468.460938 823.269531 2365.019531 878.371094 2263.242188 C 936.617188 2180.15625 998.601562 2100.394531 1060.980469 2020.632812 C 1111.554688 1956.035156 1172.164062 1905.144531 1228.050781 1849.0625 C 1337.851562 1738.558594 1468.910156 1657.136719 1599.375 1575.710938 C 1630.859375 1555.980469 1682.613281 1548.917969 1689.304688 1514.644531 C 1696.191406 1479.957031 1672.183594 1436.960938 1657.621094 1399.363281 C 1590.714844 1225.714844 1484.257812 1090.910156 1308.53125 1036.488281 C 1166.257812 992.246094 1025.167969 1016.339844 887.027344 1065.359375 C 725.863281 1122.480469 575.328125 1208.058594 412 1259.15625 C 422.035156 1182.511719 452.929688 1112.511719 478.902344 1041.472656 C 535.773438 885.894531 601.5 734.679688 696.9375 600.082031 Z M 1695.601562 1908.050781 C 1594.847656 1957.074219 1502.164062 2008.585938 1411.84375 2064.875 C 1298.890625 2135.289062 1190.855469 2212.558594 1103.683594 2317.664062 C 1095.023438 2328.046875 1079.085938 2338.847656 1085.578125 2353.390625 C 1091.089844 2365.851562 1108.210938 2359.828125 1120.410156 2360.453125 C 1316.402344 2368.550781 1467.726562 2274.457031 1591.699219 2124.28125 C 1641.484375 2064.046875 1676.710938 1993.214844 1695.601562 1908.050781 Z M 1695.601562 1908.050781 "/>
<path style=" stroke:none;fill-rule:nonzero;fill:rgb(11.764706%,14.901961%,52.941179%);fill-opacity:1;" d="M 2918.394531 1841.167969 C 2906.785156 1835.5625 2893.40625 1833.898438 2883.960938 1845.53125 C 2872.152344 1860.070312 2861.328125 1875.441406 2851.6875 1891.644531 C 2798.164062 1980.128906 2744.246094 2068.613281 2693.082031 2158.347656 C 2587.609375 2344.25 2340.449219 2320.777344 2233.597656 2200.929688 C 2130.683594 2085.4375 2072.828125 1947.308594 2033.078125 1799.003906 C 2030.324219 1788.824219 2027.570312 1778.441406 2025.011719 1767.847656 L 1990.96875 1430.105469 C 1990.96875 1425.949219 1991.558594 1421.796875 1992.148438 1418.058594 C 1995.296875 1398.117188 2004.941406 1383.785156 2016.15625 1370.90625 C 2021.46875 1364.675781 2027.175781 1358.652344 2032.6875 1352.628906 C 2050.789062 1333.101562 2069.089844 1314.199219 2087.980469 1295.921875 C 2213.921875 1173.785156 2358.160156 1076.785156 2498.074219 973.964844 C 2564.585938 925.152344 2638.574219 906.042969 2716.105469 920.585938 C 2850.308594 945.71875 2884.351562 1000.554688 2846.375 1124.765625 C 2816.265625 1223.222656 2777.304688 1317.941406 2737.359375 1412.449219 C 2723.976562 1444.4375 2707.054688 1475.59375 2702.921875 1514.226562 C 2754.476562 1504.257812 2777.109375 1463.546875 2798.359375 1424.703125 C 2858.378906 1315.238281 2892.421875 1194.765625 2922.726562 1073.460938 C 2964.640625 905.835938 2995.140625 735.71875 2998.878906 561.863281 C 3001.042969 461.746094 2959.328125 406.910156 2868.609375 387.175781 C 2766.285156 364.953125 2669.074219 389.878906 2577.570312 435.160156 C 2449.46875 498.304688 2356.785156 607.769531 2264.296875 716.402344 C 2238.519531 746.730469 2220.808594 784.949219 2196.40625 814.234375 C 2156.855469 861.386719 2126.351562 913.730469 2094.277344 965.65625 C 2048.625 1039.8125 2009.664062 1117.910156 1970.699219 1209.097656 C 1970.699219 1151.5625 1971.683594 1106.070312 1970.503906 1060.789062 C 1964.007812 821.921875 1861.878906 645.15625 1654.078125 547.53125 C 1435.847656 444.921875 1207.976562 451.777344 978.335938 498.304688 C 879.945312 518.246094 788.441406 559.164062 696.542969 599.460938 C 601.300781 734.265625 535.378906 885.273438 478.511719 1040.851562 C 452.535156 1111.886719 421.835938 1181.886719 411.605469 1258.535156 C 574.933594 1207.4375 725.46875 1121.859375 886.632812 1064.738281 C 1024.773438 1015.925781 1166.0625 991.828125 1308.136719 1035.863281 C 1483.863281 1090.492188 1590.324219 1225.09375 1657.226562 1398.949219 C 1671.59375 1436.542969 1695.796875 1479.539062 1688.910156 1514.226562 C 1682.21875 1548.5 1630.464844 1555.769531 1598.980469 1575.503906 C 1468.710938 1656.71875 1337.460938 1738.144531 1227.65625 1848.855469 C 1171.769531 1905.144531 1111.160156 1955.828125 1060.589844 2020.425781 C 998.207031 2100.1875 1013.558594 2073.808594 955.3125 2156.894531 C 902.179688 2229.175781 892.144531 2242.886719 880.335938 2256.386719 C 856.722656 2283.390625 888.796875 2306.03125 937.992188 2322.855469 C 995.652344 2342.796875 990.140625 2345.496094 1084.988281 2352.765625 C 1084.398438 2351.519531 1084.398438 2350.480469 1084.203125 2349.234375 C 1082.039062 2336.773438 1095.617188 2326.800781 1103.289062 2317.664062 C 1162.914062 2245.792969 1232.378906 2187.011719 1306.171875 2134.460938 C 1296.527344 2141.730469 1287.082031 2149.207031 1277.835938 2156.683594 C 1320.929688 2124.488281 1365.992188 2094.578125 1411.84375 2065.914062 C 1453.363281 2040.15625 1495.277344 2015.230469 1538.175781 1991.136719 C 1522.234375 1999.652344 1506.691406 2007.960938 1491.734375 2016.269531 C 1464.578125 2032.058594 1437.816406 2048.257812 1411.25 2064.667969 C 1376.027344 2086.6875 1341.199219 2109.328125 1307.351562 2133.214844 C 1361.464844 2092.292969 1420.894531 2055.527344 1491.734375 2016.269531 C 1556.671875 1978.257812 1623.773438 1942.53125 1695.007812 1907.84375 C 1695.007812 1908.46875 1694.8125 1908.882812 1694.617188 1909.507812 C 1694.8125 1909.507812 1695.207031 1909.296875 1695.402344 1909.089844 C 1695.402344 1909.296875 1695.402344 1909.507812 1695.207031 1909.921875 C 1696.386719 1909.296875 1697.765625 1908.675781 1698.945312 1908.050781 C 1705.046875 1925.707031 1749.714844 2052.828125 1760.339844 2149.414062 C 1768.605469 2223.777344 1768.015625 2204.042969 1778.640625 2270.304688 C 1792.417969 2348.820312 1785.527344 2317.039062 1802.058594 2379.5625 C 1853.417969 2572.109375 1948.265625 2729.972656 2125.371094 2817.628906 C 2176.53125 2842.96875 2235.566406 2843.800781 2292.238281 2848.371094 C 2448.285156 2835.074219 2558.089844 2741.398438 2642.902344 2613.03125 C 2791.867188 2387.453125 2868.808594 2130.511719 2921.542969 1864.433594 C 2923.316406 1855.5 2927.644531 1846.152344 2917.804688 1841.375 Z M 2918.394531 1841.167969 "/>
</g>
</svg>
